<svg width="30" height="30" viewBox="0 0 30 30" fill="none" xmlns="http://www.w3.org/2000/svg">
<circle cx="15" cy="15" r="14.75" stroke="#E6E6E6" stroke-width="0.5"/>
<circle cx="15" cy="15" r="8" fill="#9E9E9E"/>
<path fill-rule="evenodd" clip-rule="evenodd" d="M11 20C11.2747 19.8347 11.8423 19.5041 11.9155 19.5041C11.9466 19.5041 11.9469 19.4594 11.9475 19.3901C11.9486 19.2549 11.9505 19.0258 12.1826 18.8518C13.2367 18.7755 15.5602 18.2979 16.4208 16.9978C16.904 16.3976 17.5133 15.1621 16.0851 15.0217C15.7201 15.0217 14.6828 15.3429 13.4529 16.6277C13.9056 15.8457 15.0124 14.1436 15.8181 13.5912C15.977 13.4208 16.2316 13.0129 15.9783 12.7443C16.5378 12.373 17.6957 11.4397 17.8513 10.6767C17.9569 10.3003 17.9772 9.678 17.2143 10.1999C16.7005 10.5813 15.5007 11.712 14.811 13.183C13.8522 14.8501 11.9064 18.2368 11.7935 18.4474L11.3891 18.2528L11.2098 18.4474L11.6523 18.6954C11.4349 19.0476 11 19.8016 11 20ZM15.696 12.5307L17.4622 10.4669C17.4409 10.7324 16.9981 11.3609 16.7794 11.6419C16.5383 12.0172 15.9567 12.3908 15.696 12.5307ZM15.8524 15.4261C14.3387 15.9205 12.9023 17.7506 12.3733 18.6038C13.8962 18.6038 15.139 17.6272 15.5701 17.139C16.7267 15.613 16.2402 15.3613 15.8524 15.4261ZM15.6617 12.6108L14.8453 13.9613C15.0894 13.7375 15.5945 13.2593 15.6617 13.1373C15.7023 13.0533 15.7593 12.8306 15.6617 12.6108Z" fill="white"/>
<rect x="11.9613" y="19.79" width="6.0197" height="0.144961" fill="white"/>
</svg>
