<svg width="30" height="30" viewBox="0 0 30 30" fill="none" xmlns="http://www.w3.org/2000/svg">
<circle cx="15" cy="15" r="14.75" fill="white" stroke="#E6E6E6" stroke-width="0.5"/>
<path fill-rule="evenodd" clip-rule="evenodd" d="M7 9C7 7.89543 7.89543 7 9 7H21C22.1046 7 23 7.89543 23 9V21C23 22.1046 22.1046 23 21 23H9C7.89543 23 7 22.1046 7 21V9ZM15 18.5C16.933 18.5 18.5 16.933 18.5 15C18.5 13.067 16.933 11.5 15 11.5C13.067 11.5 11.5 13.067 11.5 15C11.5 16.933 13.067 18.5 15 18.5ZM15 20C17.7614 20 20 17.7614 20 15C20 12.2386 17.7614 10 15 10C12.2386 10 10 12.2386 10 15C10 17.7614 12.2386 20 15 20ZM21 10C21.5523 10 22 9.55228 22 9C22 8.44772 21.5523 8 21 8C20.4477 8 20 8.44772 20 9C20 9.55228 20.4477 10 21 10Z" fill="#9E9E9E"/>
</svg>
