<svg width="30" height="30" viewBox="0 0 30 30" fill="none" xmlns="http://www.w3.org/2000/svg">
<circle cx="15" cy="15" r="14.75" fill="white" stroke="#E6E6E6" stroke-width="0.5"/>
<path fill-rule="evenodd" clip-rule="evenodd" d="M15 20C19.4183 20 23 17.3137 23 14C23 10.6863 19.4183 8 15 8C10.5817 8 7 10.6863 7 14C7 16.1931 8.56884 18.1114 10.9107 19.158C10.7666 20.149 10.5409 21.4139 10.3 22.0667C10.0181 22.331 9.88376 22.5 10 22.5C10.0995 22.5 10.201 22.3351 10.3 22.0667C10.8917 21.512 12.1331 20.5375 13.0707 19.8244C13.6886 19.9391 14.3348 20 15 20Z" fill="#9E9E9E"/>
</svg>
