<svg width="36" height="36" viewBox="0 0 36 36" fill="none" xmlns="http://www.w3.org/2000/svg">
<path fill-rule="evenodd" clip-rule="evenodd" d="M18 36C27.9411 36 36 27.9411 36 18C36 8.05887 27.9411 0 18 0C8.05887 0 0 8.05887 0 18C0 27.9411 8.05887 36 18 36ZM22.1748 10.7441H23.8447V26.5293H22.1748V10.7441ZM15.4248 22.9785C13.043 22.9873 11.3467 20.8428 11.3467 17.4414C11.3467 14.0752 13.043 11.9307 15.4248 11.9219C17.7627 11.9307 19.4854 14.0752 19.4854 17.4414C19.4854 20.8428 17.7627 22.9873 15.4248 22.9785ZM15.4248 13.416C13.957 13.4248 12.9551 14.9717 12.9639 17.4414C12.9551 19.9463 13.957 21.4844 15.4248 21.4844C16.8662 21.4844 17.8682 19.9463 17.8682 17.4414C17.8682 14.9717 16.8662 13.4248 15.4248 13.416Z" fill="#9E9E9E"/>
</svg>
