<svg width="30" height="30" viewBox="0 0 30 30" fill="none" xmlns="http://www.w3.org/2000/svg">
<circle cx="15" cy="15" r="14.75" fill="white" stroke="#E6E6E6" stroke-width="0.5"/>
<path fill-rule="evenodd" clip-rule="evenodd" d="M21.3672 12.6824C21.3803 12.5628 21.387 12.4413 21.387 12.3183L21.3869 12.3001C21.8739 12.0488 22.6534 11.0929 23 10.6207C22.6021 10.8709 21.6245 11.0479 21.1597 11.1089L21.1576 11.1036C21.8164 10.8566 22.3519 9.82485 22.5391 9.33411C22.1099 9.65177 21.0697 9.93855 20.505 10.0654C19.8988 9.41018 19.0316 9 18.0687 9C16.236 9 14.7504 10.4857 14.7504 12.3183C14.7504 12.59 14.7831 12.8541 14.8447 13.1069C11.75 13.0927 9.12457 10.9137 8.10226 9.67975C6.92549 11.5509 8.27252 13.3757 9.09314 14.0542C8.50014 14.0481 7.8603 13.7956 7.6145 13.6702C7.5254 15.7994 9.34406 16.7081 10.2645 16.8963C9.68997 17.1021 9.03425 17.0307 8.77821 16.9692C9.29131 18.6991 11.0122 19.2186 11.8085 19.2621C10.2108 20.5894 7.93711 20.7215 7 20.6217C7.74662 21.1563 9.42343 21.6484 10.1685 21.8276C18.7469 23.004 21.1776 16.4613 21.3672 12.6824Z" fill="#9E9E9E"/>
</svg>
