<svg width="30" height="30" viewBox="0 0 30 30" fill="none" xmlns="http://www.w3.org/2000/svg">
<circle cx="15" cy="15" r="14.75" fill="white" stroke="#E6E6E6" stroke-width="0.5"/>
<path fill-rule="evenodd" clip-rule="evenodd" d="M15 23C19.4183 23 23 19.4183 23 15C23 10.5817 19.4183 7 15 7C10.5817 7 7 10.5817 7 15C7 19.1309 10.1309 22.5305 14.1491 22.9553C13.9688 22.929 13.7918 22.8891 13.6246 22.8318V17.3686H11.6304V14.9312H13.6246C13.51 12.5701 13.5253 10.3161 16.4976 10.1098C17.0707 10.1429 18.2489 10.2305 18.3773 10.3161V12.2416H17.2388C16.8618 12.2772 16.1079 12.5701 16.1079 13.4565V14.9312H18.3161L17.9188 17.3686H16.1079V22.8318C15.8368 22.9048 15.3322 22.9949 14.7851 22.9972C14.8565 22.9991 14.9281 23 15 23Z" fill="#9E9E9E"/>
</svg>
